<?xml version="1.0" ?><svg id="Layer_1" style="enable-background:new 0 0 512 512;" version="1.1" viewBox="0 0 512 512" xml:space="preserve" xmlns="http://www.w3.org/2000/svg" xmlns:xlink="http://www.w3.org/1999/xlink"><style type="text/css">
	.st0{fill:#ED1C24;}
</style><g><path class="st0" d="M137.6,354.2c2.3-2.5,3.5-5.6,3.5-9.4s-1.2-7-3.5-9.5c-2.3-2.5-5.8-3.8-10.5-3.8H111v26.5h16.2   C131.8,357.9,135.3,356.7,137.6,354.2z"/><path class="st0" d="M458,118.2L346.5,8.4C345,6.9,342.9,6,340.7,6H135c-31.1,0-56.3,26.6-56.3,59.4v219.2H51.3v148.6h27.4v13.4   c0,32.7,25.3,59.4,56.3,59.4h269.4c31.1,0,56.3-26.6,56.3-59.4V124.7C460.7,122.3,459.8,119.9,458,118.2z M337.9,24.4l97,95.6   h-52.8c-24.4,0-44.2-19.5-44.2-43.4V24.4z M443.7,446.6c0,22.9-17.6,41.5-39.3,41.5H135c-21.7,0-39.3-18.6-39.3-41.5v-13.4h187   c36.5,0,66-33.3,66-74.3v0c0-41-29.6-74.3-66-74.3h-187V65.4c0-22.9,17.6-41.5,39.3-41.5h185.9v52.7c0,33.8,27.4,61.3,61.2,61.3   h61.6V446.6z M98.4,396.4v-75h28.7c8.3,0,14.8,2.1,19.4,6.4s7,9.9,7,16.9c0,7-2.3,12.7-7,16.9c-4.7,4.2-11.2,6.4-19.4,6.4H111v28.4   H98.4z M214.8,354.4v-33h12.5v75h-12.5v-32h-33.5v32h-12.5v-75h12.5v33H214.8z M246.3,396.4v-75H275c8.3,0,14.8,2.1,19.4,6.4   s7,9.9,7,16.9c0,7-2.3,12.7-7,16.9c-4.7,4.2-11.2,6.4-19.4,6.4h-16.2v28.4H246.3z"/><path class="st0" d="M285.5,354.2c2.3-2.5,3.5-5.6,3.5-9.4s-1.2-7-3.5-9.5c-2.3-2.5-5.8-3.8-10.5-3.8h-16.2v26.5H275   C279.7,357.9,283.1,356.7,285.5,354.2z"/></g></svg>